<svg width="20" height="11" viewBox="0 0 20 11" fill="none" xmlns="http://www.w3.org/2000/svg">
<g clip-path="url(#clip0)">
<path d="M0.624235 8.99075C0.536277 8.84585 0.414894 8.61613 0.342768 8.44472C-0.0864693 7.44454 -0.10582 6.40903 0.25481 5.41592C0.652382 4.32562 1.4141 3.49155 2.39748 3.06745C3.63242 2.53378 4.99929 2.63804 6.18497 3.34488C6.9379 3.77782 7.47092 4.44755 7.87553 5.39471C7.92655 5.51664 7.97229 5.64564 8.01627 5.7552L0.624235 8.99075ZM3.09235 4.67374C2.21452 5.0519 1.76242 5.8789 1.85565 6.84903L5.57278 5.24097C4.93244 4.48642 4.10035 4.23726 3.09235 4.67374ZM6.03544 8.17082C6.03368 8.17082 6.03368 8.17259 6.03368 8.17259L5.95628 8.11958C5.73462 8.48183 5.38807 8.7734 4.95179 8.96425C4.12146 9.3265 3.35095 9.23461 2.79857 8.7469L2.74755 8.82465C2.74755 8.82465 2.74755 8.82288 2.74579 8.82288L1.80288 10.2401C2.03685 10.4044 2.28841 10.5423 2.55229 10.6518C3.59371 11.0865 4.65977 11.0671 5.70999 10.6076C6.46996 10.2772 7.06631 9.77358 7.47268 9.13389L6.03544 8.17082Z" fill="#CCCCCC"/>
<path d="M10.5988 0.980469V8.85995L11.8179 9.35651L11.1248 10.9805L9.77903 10.4168C9.47646 10.286 9.27063 10.0846 9.11583 9.8566C8.9663 9.62511 8.85547 9.30703 8.85547 8.87939V0.980469H10.5988Z" fill="#CCCCCC"/>
<path d="M13.7584 6.85214C13.7584 6.18064 14.054 5.57983 14.5201 5.16986L13.2694 3.76855C12.4214 4.52134 11.8867 5.62224 11.8849 6.85037C11.8831 8.07674 12.4179 9.17941 13.2658 9.93572L14.5149 8.53265C14.0504 8.12092 13.7584 7.52187 13.7584 6.85214Z" fill="#CCCCCC"/>
<path d="M15.9818 9.08952C15.7355 9.08952 15.498 9.04711 15.2763 8.97466L14.6782 10.7594C15.0863 10.8973 15.5244 10.9715 15.9782 10.9732C17.9591 10.975 19.6145 9.56311 19.9962 7.68645L18.1596 7.31006C17.952 8.32437 17.0549 9.08952 15.9818 9.08952Z" fill="#CCCCCC"/>
<path d="M15.9875 2.73682C15.5337 2.73682 15.0956 2.81103 14.6875 2.9471L15.2803 4.73364C15.502 4.65942 15.7395 4.61877 15.9858 4.61877C17.0624 4.62054 17.9596 5.38923 18.1636 6.40884L20.0002 6.03422C19.622 4.15579 17.9701 2.73858 15.9875 2.73682Z" fill="#CCCCCC"/>
</g>
<defs>
<clipPath id="clip0">
<rect width="20" height="10" fill="white" transform="translate(0 0.980469)"/>
</clipPath>
</defs>
</svg>
