<svg width="30" height="19" viewBox="0 0 30 19" fill="none" xmlns="http://www.w3.org/2000/svg">
<g clip-path="url(#clip0)">
<path d="M30 9.98172C30 5.0399 26.0336 0.980469 21.0979 0.980469C18.9688 0.980469 17.0326 1.71537 15.4847 2.98519C16.6469 4.11003 17.5643 5.52984 18.002 7.14211H17.275C16.7903 5.72481 16.0163 4.45249 14.953 3.42513C13.8897 4.45249 13.1157 5.72481 12.6311 7.14211H11.9041C12.3887 5.52734 13.2591 4.11003 14.4214 2.98519C12.8709 1.71537 10.9842 0.980469 8.85509 0.980469C3.96884 0.980469 0 5.0399 0 9.98172C0 14.9235 3.96884 18.983 8.90455 18.983C11.0336 18.983 12.9698 18.2006 14.4683 16.9782C13.3061 15.8534 12.4357 14.4336 11.951 12.8213H12.678C13.1627 14.2386 13.9367 15.511 15 16.5383C16.0633 15.511 16.8867 14.2386 17.322 12.8213H18.049C17.5643 14.4361 16.6939 15.8534 15.5317 16.9782C17.0796 18.2506 19.0158 18.983 21.1449 18.983C26.0336 18.9805 30 14.921 30 9.98172Z" fill="#CCCCCC"/>
<path d="M23.4692 12.0839L24.0973 8.75684H24.8713L24.9678 9.09929C25.1137 8.95181 25.3535 8.75684 25.8382 8.75684L25.5958 9.63671C25.3535 9.63671 24.9678 9.58672 24.676 10.5666L24.3866 12.0839H23.4692Z" fill="#333333"/>
<path d="M11.6121 7.92676H12.4825L12.2897 8.80663H12.7743L12.6284 9.49154H12.1932L11.9509 10.8114C11.9039 11.0563 11.9509 11.3013 12.4356 11.2038L12.3391 11.9387C12.1462 12.0862 11.9039 12.0862 11.6616 12.0862C11.4687 12.0862 10.7911 11.9387 10.9346 11.0588L11.6121 7.92676Z" fill="#333333"/>
<path d="M15.4843 10.6166C15.5807 10.0792 15.8231 8.75684 14.2751 8.75684C12.8236 8.75684 12.6307 10.2241 12.6307 10.4191C12.5812 10.6141 12.5812 12.0814 14.1317 12.0814C14.5199 12.0814 15.0515 12.0314 15.2939 11.9339L15.4398 11.249C15.2939 11.2965 14.8117 11.3465 14.4235 11.3465C14.0847 11.3465 13.5036 11.3465 13.6 10.6116H15.4843" fill="#333333"/>
<path d="M10.7415 9.53942L10.9344 8.85451C10.4992 8.70703 10.1604 8.70703 10.064 8.70703C9.91811 8.70703 8.8548 8.70703 8.70891 9.48942C8.56301 10.1243 8.80535 10.3693 8.99823 10.4668C9.337 10.6143 9.52988 10.7592 9.72523 10.8592C9.96756 10.9567 9.91811 11.3492 9.62879 11.3492C9.48289 11.3492 8.90179 11.3967 8.46657 11.2517L8.32068 11.9366C8.75589 12.0341 9.04768 12.0341 9.38398 12.0341C9.62632 12.0341 10.6896 12.0841 10.8355 11.1042C10.932 10.6143 10.6896 10.4193 10.5462 10.2718C10.3533 10.1743 10.111 9.97935 9.91811 9.92936C9.72523 9.83187 9.57933 9.53942 9.91811 9.43943C10.064 9.49192 10.4992 9.49192 10.7415 9.53942Z" fill="#333333"/>
<path d="M4.93577 12.0837L5.70975 8.07178H4.20877L3.14546 10.5189L2.95258 8.07178H1.54803L0.774048 12.0837H1.64447L2.22558 9.19662L2.46792 12.0837H3.29136L4.54754 9.24661L4.01589 12.0837H4.93577Z" fill="#333333"/>
<path d="M5.95232 8.85444L5.80642 9.58933C6.04876 9.58933 6.62986 9.49185 6.91918 9.49185C7.2085 9.49185 7.59673 9.44186 7.45083 9.93179C7.2085 9.93179 5.61354 9.68682 5.37121 11.1066C5.27477 11.7915 5.85588 12.134 6.29109 12.134C6.7263 12.134 6.8722 12.0365 7.01809 11.939L7.11453 12.134H7.93797L8.27675 10.3242C8.37319 9.88429 8.51908 8.80694 7.01809 8.80694C6.82274 8.75695 6.53342 8.75695 5.95232 8.85444Z" fill="#333333"/>
<path d="M20.4206 9.00189C20.1782 8.85441 20.0323 8.85441 19.743 8.85441C19.4537 8.85441 18.7762 9.14687 18.6797 9.92926C18.5338 10.9066 19.1644 11.3491 20.0818 11.0541L20.3241 11.8865C20.0348 12.034 19.743 12.0815 19.2608 12.0815C18.3409 12.0815 17.3246 11.2491 17.7598 9.53681C18.0986 8.31449 19.1644 7.82455 19.7925 7.87455C20.5195 7.92454 20.8088 8.16701 21.0017 8.41197L20.4206 9.00189Z" fill="#333333"/>
<path d="M28.0168 9.14928C27.8239 9.0018 27.7275 8.75683 27.3392 8.75683C26.8546 8.75683 26.0806 8.65934 25.6454 10.1741C25.356 11.2015 25.9347 12.0814 26.5652 12.0814C26.8546 12.0814 27.1464 11.9339 27.3392 11.8364L27.4357 12.0814H28.4025L29.179 7.87695H28.2591L28.0168 9.14928Z" fill="#333333"/>
<path d="M21.0485 8.85444L20.9026 9.58933C21.1449 9.58933 21.7261 9.49185 22.0154 9.49185C22.3047 9.49185 22.6435 9.44186 22.547 9.93179C22.3047 9.93179 20.7073 9.68682 20.4674 11.1066C20.371 11.7915 20.9521 12.134 21.3873 12.134C21.8225 12.134 21.9684 12.0365 22.1143 11.939L22.2107 12.134H23.0342L23.3729 10.3242C23.4694 9.88429 23.6153 8.80694 22.1143 8.80694C21.9684 8.75695 21.6296 8.75695 21.0485 8.85444Z" fill="#333333"/>
<path d="M13.598 9.98195H14.7108C14.7602 9.6395 14.6638 9.39453 14.325 9.39453C13.9368 9.39453 13.6945 9.5895 13.598 9.98195Z" fill="#CCCCCC"/>
<path d="M7.30726 10.6167C7.16136 10.6167 6.82259 10.5192 6.53327 10.7141C6.24396 10.9091 6.14504 11.2516 6.48382 11.3491C6.77314 11.4465 7.16136 11.2516 7.2578 10.9566L7.30726 10.6167Z" fill="#CCCCCC"/>
<path d="M27.7276 10.5193C27.8241 10.2269 27.7746 9.83441 27.6782 9.68693C27.3889 9.29698 26.7583 9.58944 26.5654 10.3218C26.4195 10.8118 26.7113 11.1542 27.0006 11.1542C27.3394 11.1542 27.5323 10.9093 27.7276 10.5193Z" fill="#CCCCCC"/>
<path d="M22.4528 10.6167C22.3069 10.6167 21.9681 10.5192 21.6788 10.7141C21.3895 10.9091 21.2906 11.2516 21.6293 11.3491C21.9186 11.4465 22.3563 11.2516 22.4033 10.9566L22.4528 10.6167Z" fill="#CCCCCC"/>
<path d="M15.4847 12.0837L16.1127 8.80664H16.8867L16.9832 9.14909C17.1291 9.00161 17.3689 8.80664 17.8536 8.80664L17.6113 9.68652C17.4184 9.68652 16.9832 9.63902 16.6914 10.6164L16.4021 12.1337H15.4822" fill="#333333"/>
<path d="M8.9045 0.980469C4.98511 0.980469 1.64436 3.57261 0.484619 7.14461H12.0004C12.4851 5.52984 13.3555 4.11253 14.5178 2.98769C12.9203 1.76286 10.9841 0.980469 8.9045 0.980469Z" fill="#CCCCCC"/>
<path d="M15.0001 3.4751C13.9368 4.50245 13.1603 5.72479 12.6781 7.19208H17.3245C16.8398 5.77478 16.0658 4.50245 15.0001 3.4751Z" fill="#CCCCCC"/>
<path d="M21.0979 0.980469C18.9688 0.980469 17.0326 1.71537 15.4846 2.98519C16.6468 4.11003 17.5173 5.52984 18.0019 7.14211H29.5178C28.405 3.57261 25.0667 0.980469 21.0979 0.980469Z" fill="#CCCCCC"/>
</g>
<defs>
<clipPath id="clip0">
<rect width="30" height="18" fill="white" transform="translate(0 0.980469)"/>
</clipPath>
</defs>
</svg>
