<svg width="27" height="13" viewBox="0 0 27 13" fill="none" xmlns="http://www.w3.org/2000/svg">
<g clip-path="url(#clip0)">
<path d="M8.14884 6.41655C8.10357 6.64444 8.0708 6.89464 8.02553 7.15599C7.98027 7.41256 7.88975 7.67392 7.91628 7.92252C7.97715 8.49464 8.74818 8.49942 9.06346 8.15997C9.32411 7.8795 9.53949 7.18308 9.45989 6.62691C9.36781 5.98468 8.45787 6.03089 8.14884 6.41655Z" fill="#CCCCCC"/>
<path d="M11.7118 6.10889C11.2623 6.12642 10.9767 6.4818 10.9346 6.80531H12.3127C12.4376 6.26826 12.1348 6.09296 11.7118 6.10889Z" fill="#CCCCCC"/>
<path d="M8.16273 6.05615C8.15805 6.05934 8.15336 6.06412 8.14868 6.06731C8.15649 6.06731 8.16429 6.06571 8.16273 6.05615Z" fill="#CCCCCC"/>
<path d="M17.6086 7.80938C17.5212 8.53129 18.3702 8.44683 18.673 8.14404C18.904 7.91296 18.9633 7.49703 19.0148 7.16874C18.3203 7.08269 17.6804 7.21017 17.6086 7.80938Z" fill="#CCCCCC"/>
<path d="M23.109 6.12333C22.4769 6.19504 22.1648 7.00142 22.1804 7.72652C22.1897 8.14086 22.3864 8.38946 22.7813 8.38149C23.7053 8.36078 23.635 7.04922 23.8317 6.23488C23.6179 6.15998 23.404 6.08986 23.109 6.12333Z" fill="#CCCCCC"/>
<path d="M7.41216 0.980469C6.48037 0.980469 4.61368 0.980469 4.61368 0.980469C3.37754 1.03943 2.36615 1.54939 2.07428 2.5964C1.92289 3.14302 1.8386 3.74382 1.71998 4.31115C1.1144 7.19401 0.579051 10.155 0 12.9805H21.7854C23.4695 12.9805 24.626 12.6171 24.9382 11.253C25.0834 10.6187 25.2223 9.90158 25.3612 9.20358C25.9028 6.48804 26.4444 3.7725 26.9984 0.980469H7.41216V0.980469ZM6.78473 4.71593C6.83155 4.65218 6.89866 4.61075 7.01728 4.59003C7.14527 4.56772 7.23579 4.58206 7.29042 4.63146C7.46211 4.78764 7.31227 5.16214 7.19521 5.24501C7.1203 5.2976 6.87057 5.35816 6.75819 5.24501C6.6427 5.13027 6.70981 4.81951 6.78473 4.71593ZM4.83219 8.70158C4.93832 8.01951 5.07411 7.36931 5.18648 6.69521C4.63865 6.64262 3.95503 6.66652 3.38534 6.68087C3.24643 7.32947 3.14966 8.01951 3.04353 8.70158H2.37395C2.63616 7.37091 2.84843 5.99083 3.08411 4.63146H3.73964C3.63038 5.16533 3.55078 5.72947 3.43997 6.26174C4.02682 6.30636 4.64801 6.28246 5.25516 6.27609C5.35037 5.73107 5.44401 5.18764 5.5283 4.63146H6.21036C5.9419 5.95577 5.71559 7.3231 5.5002 8.70158H4.83219ZM6.08862 8.70158C6.27591 7.7725 6.45072 6.83226 6.58026 5.84421C6.5787 5.82509 6.5787 5.80437 6.59431 5.80278H7.17961C6.9767 6.73505 6.81594 7.70716 6.67391 8.70158H6.08862ZM9.20082 8.61872C8.83092 8.8227 7.95688 8.9231 7.82265 8.39561C7.70403 8.8976 7.64784 9.46334 7.56356 9.99879H6.9767C7.24048 8.6235 7.4902 7.23385 7.70091 5.80437H8.2066C8.20192 5.8968 8.1707 5.96214 8.16602 6.05457C8.16602 6.05617 8.16602 6.05617 8.16602 6.05617C8.42823 5.83943 9.03382 5.61314 9.53015 5.80278C10.5493 6.19481 9.96248 8.198 9.20082 8.61872ZM12.7906 7.14142C12.1569 7.12549 11.4983 7.12071 10.8662 7.14142C10.7678 7.57011 10.7694 8.06254 11.0706 8.25696C11.4702 8.51513 12.1429 8.30796 12.5315 8.15975C12.5066 8.31911 12.466 8.46413 12.4504 8.63306C11.5092 8.86732 10.3308 8.90238 10.2247 7.93664C10.1513 7.25935 10.4042 6.51672 10.7163 6.18047C10.9707 5.90636 11.3297 5.78206 11.7543 5.7486C12.2381 5.71035 12.7141 5.81234 12.8468 6.20915C12.9451 6.50716 12.8296 6.83704 12.7906 7.14142ZM13.841 6.83385C13.6584 7.37409 13.6225 8.13585 13.5414 8.70158H12.9545C13.1324 7.75019 13.3197 6.80676 13.4462 5.80278H13.9643C13.93 5.96214 13.9113 6.13903 13.8691 6.29043C14.0595 5.95099 14.4685 5.58764 14.9882 5.80278C14.9726 5.95417 14.9273 6.07529 14.9195 6.23465C14.3686 6.03385 13.9877 6.40198 13.841 6.83385ZM16.6395 8.61872C15.8732 8.88963 14.9258 8.85138 14.7151 8.14541C14.534 7.54142 14.79 6.58366 15.1786 6.16613C15.5766 5.74063 16.3258 5.65776 17.1171 5.79003C17.0968 5.94939 17.0641 6.0976 17.0484 6.26334C16.5662 6.09123 15.9621 6.04023 15.6562 6.34621C15.4346 6.56772 15.291 7.05856 15.2598 7.46174C15.2457 7.64023 15.2598 7.87609 15.3144 8.01951C15.5001 8.51035 16.3008 8.39561 16.7207 8.1725C16.691 8.31752 16.6739 8.47688 16.6395 8.61872ZM19.5332 7.36453C19.4583 7.80915 19.3881 8.20915 19.3834 8.70318H18.8777C18.8699 8.53266 18.8933 8.39401 18.9183 8.25696C18.6763 8.65218 17.9771 8.94063 17.4027 8.68883C17.1046 8.55816 16.9486 8.09123 17.089 7.61632C17.2982 6.90716 18.0926 6.74143 19.0681 6.83545C19.1118 6.71274 19.1711 6.547 19.1368 6.38923C19.0322 5.91752 17.9537 6.18844 17.6072 6.27768C17.6431 6.11991 17.6868 5.97011 17.7165 5.80437C18.411 5.78366 19.6518 5.51274 19.6955 6.27768C19.7158 6.61075 19.5972 6.98525 19.5332 7.36453ZM20.5977 7.65617C20.5384 8.03226 20.465 8.31752 20.4619 8.70158H19.861C20.0576 7.76453 20.2262 6.7988 20.3667 5.80278H20.8848C20.8396 5.94302 20.838 6.12629 20.7896 6.26334C20.9582 5.9972 21.3905 5.55258 21.9087 5.81712C21.8697 5.94461 21.8572 6.09919 21.8276 6.23465C20.9083 5.97011 20.7241 6.85138 20.5977 7.65617ZM24.0236 8.70158H23.4914C23.4945 8.54222 23.5257 8.41154 23.546 8.26971C23.5351 8.23306 23.4742 8.36055 23.4367 8.40836C23.3868 8.4737 23.3087 8.56613 23.2323 8.61712C22.839 8.88166 22.0586 8.80676 21.7854 8.49123C21.6278 8.30796 21.5841 8.05298 21.581 7.79481C21.5654 6.45935 22.4488 5.37887 23.8878 5.84421C23.9752 5.43146 24.0423 4.998 24.0923 4.5486H24.6791C24.4434 5.91593 24.1266 7.1988 24.0236 8.70158Z" fill="#CCCCCC"/>
</g>
<defs>
<clipPath id="clip0">
<rect width="27" height="12" fill="white" transform="translate(0 0.980469)"/>
</clipPath>
</defs>
</svg>
