<svg width="18" height="16" viewBox="0 0 18 16" fill="none" xmlns="http://www.w3.org/2000/svg">
<g clip-path="url(#clip0)">
<path d="M0 0.980469H0.6V14.4499H0V0.980469Z" fill="#CCCCCC"/>
<path d="M2.4002 14.4499V0.980469H1.8002H1.2002V14.4499H1.8002H2.4002Z" fill="#CCCCCC"/>
<path d="M7.79997 14.4499V0.980469H7.19998H6.59998V14.4499H7.19998H7.79997Z" fill="#CCCCCC"/>
<path d="M12.8997 14.4499V0.980469H12.2997H11.6997V14.4499H12.2997H12.8997Z" fill="#CCCCCC"/>
<path d="M14.7 14.4499V0.980469H14.1H13.5V14.4499H14.1H14.7Z" fill="#CCCCCC"/>
<path d="M2.99976 0.980469H3.59976V14.4499H2.99976V0.980469Z" fill="#CCCCCC"/>
<path d="M8.40027 0.980469H9.00027V14.4499H8.40027V0.980469Z" fill="#CCCCCC"/>
<path d="M9.30005 0.980469H9.90005V14.4499H9.30005V0.980469Z" fill="#CCCCCC"/>
<path d="M10.5002 0.980469H11.1002V14.4499H10.5002V0.980469Z" fill="#CCCCCC"/>
<path d="M5.39995 14.4499H5.99995V0.980469H5.39995H4.79995H4.19995V14.4499H4.79995H5.39995Z" fill="#CCCCCC"/>
<path d="M16.5003 14.4499H17.1003V0.980469H16.5003H15.9003H15.3003V14.4499H15.9003H16.5003Z" fill="#CCCCCC"/>
<path d="M17.4003 0.980469H18.0003V14.4499H17.4003V0.980469Z" fill="#CCCCCC"/>
<path d="M0 15.3682H0.6V15.9804H0V15.3682Z" fill="#CCCCCC"/>
<path d="M1.2002 15.3682H2.4002V15.9804H1.2002V15.3682Z" fill="#CCCCCC"/>
<path d="M2.99976 15.3682H3.59976V15.9804H2.99976V15.3682Z" fill="#CCCCCC"/>
<path d="M4.19995 15.3682H5.99995V15.9804H4.19995V15.3682Z" fill="#CCCCCC"/>
<path d="M6.59998 15.3682H7.79997V15.9804H6.59998V15.3682Z" fill="#CCCCCC"/>
<path d="M8.40027 15.3682H9.00027V15.9804H8.40027V15.3682Z" fill="#CCCCCC"/>
<path d="M9.30005 15.3682H11.1V15.9804H9.30005V15.3682Z" fill="#CCCCCC"/>
<path d="M11.6997 15.3682H12.8997V15.9804H11.6997V15.3682Z" fill="#CCCCCC"/>
<path d="M13.5 15.3682H14.7V15.9804H13.5V15.3682Z" fill="#CCCCCC"/>
<path d="M15.3003 15.3682H18.0003V15.9804H15.3003V15.3682Z" fill="#CCCCCC"/>
</g>
<defs>
<clipPath id="clip0">
<rect width="18" height="15" fill="white" transform="translate(0 0.980469)"/>
</clipPath>
</defs>
</svg>
