<svg width="34" height="11" viewBox="0 0 34 11" fill="none" xmlns="http://www.w3.org/2000/svg">
<g clip-path="url(#clip0)">
<path d="M13.6129 1.14746L11.8881 10.8324H14.649L16.3777 1.14746H13.6129Z" fill="#CCCCCC"/>
<path d="M9.57073 1.15674L6.86221 7.76348L6.57312 6.76645C6.03569 5.56741 4.5204 3.83835 2.74512 2.75236L5.21887 10.8287L8.14274 10.825L12.4985 1.15674H9.57073Z" fill="#CCCCCC"/>
<path d="M5.52374 1.85354C5.36464 1.26421 4.899 1.0863 4.32082 1.06592H0.0368637L0 1.26051C3.3352 2.03145 5.54314 3.89023 6.45503 6.12893L5.52374 1.85354Z" fill="#CCCCCC"/>
<path d="M21.9788 3.00604C22.8829 2.99307 23.5387 3.18025 24.049 3.37484L24.2973 3.48788L24.6699 1.38632C24.1227 1.19174 23.2671 0.980469 22.1981 0.980469C19.4663 0.980469 17.5416 2.29626 17.5261 4.17728C17.5086 5.57091 18.8958 6.34555 19.9474 6.80886C21.0242 7.28514 21.3832 7.58721 21.3812 8.0116C21.3696 8.66208 20.5217 8.9586 19.7262 8.9586C18.6203 8.9586 18.0344 8.8122 17.1244 8.44896L16.7694 8.297L16.3813 10.4653C17.0294 10.734 18.2226 10.9675 19.4624 10.9805C22.3688 10.9805 24.2566 9.67951 24.2741 7.67061C24.2857 6.56794 23.5484 5.72843 21.9536 5.03903C20.9874 4.59055 20.3956 4.29033 20.3995 3.83629C20.3956 3.43414 20.8981 3.00604 21.9788 3.00604Z" fill="#CCCCCC"/>
<path d="M31.7632 1.15674H29.6271C28.9635 1.15674 28.4727 1.33094 28.1797 1.96289L24.0781 10.8398H26.9807C26.9807 10.8398 27.4541 9.64451 27.5608 9.38691C27.8751 9.38691 30.6961 9.39062 31.0997 9.39062C31.1812 9.72605 31.4373 10.8417 31.4373 10.8417H33.9983L31.7632 1.15674ZM28.3543 7.40211C28.5833 6.84799 29.4583 4.69454 29.4583 4.69454C29.4428 4.72234 29.6834 4.13487 29.825 3.77164L30.0132 4.60559C30.0132 4.60559 30.5429 6.91841 30.6535 7.40211H28.3543Z" fill="#CCCCCC"/>
</g>
<defs>
<clipPath id="clip0">
<rect width="34" height="10" fill="white" transform="translate(0 0.980469)"/>
</clipPath>
</defs>
</svg>
