<svg width="24" height="24" viewBox="0 0 24 24" fill="none" xmlns="http://www.w3.org/2000/svg">
<path d="M11.0208 18.0849C11.0208 18.6078 11.3085 18.8678 11.884 18.8678C12.1718 18.8678 12.4317 18.7904 12.6421 18.6078C12.8525 18.4779 13.0072 18.2953 13.0846 18.0602L13.1093 17.7198V17.0917C11.7262 17.0669 11.0208 17.3795 11.0208 18.0849Z" fill="#CCCCCC"/>
<path d="M22.6423 1.34521C21.8842 0.587133 20.9714 0.197266 19.873 0.197266H4.12669C3.03134 0.197266 2.09071 0.587133 1.33264 1.34521C0.57456 2.10328 0.184692 3.04392 0.184692 4.13926V19.8856C0.184692 20.9562 0.577654 21.8968 1.33264 22.6549C2.09071 23.4129 3.03134 23.8028 4.12669 23.8028H19.873C20.9683 23.8028 21.8842 23.4099 22.6423 22.6549C23.4251 21.8968 23.8181 20.9562 23.8181 19.8856V4.13926C23.8181 3.04392 23.4251 2.10328 22.6423 1.34521ZM3.99673 19.8856H2.14331V12.0016H3.99673V19.8856ZM19.3501 12.0016H21.0735L19.5079 13.5951H18.2269L19.3501 12.0016ZM7.62621 20.0186C7.02594 20.0186 6.53087 19.8361 6.19051 19.471C5.85015 19.1306 5.69544 18.5303 5.69544 17.7227V15.3464H4.86001V13.985H5.69544V12.0016H7.4715V13.985H8.59469V15.3433H7.4715V17.4319C7.4715 17.8248 7.5241 18.0848 7.62931 18.2426C7.75926 18.453 7.96967 18.5551 8.25743 18.5551C8.43998 18.5551 8.54519 18.5303 8.59779 18.4777L8.62254 19.8608C8.33169 19.966 8.01917 20.0186 7.62621 20.0186ZM14.8852 19.8856H13.2143V19.2575H13.1617C12.744 19.7525 12.1437 20.0155 11.333 20.0155C10.7328 20.0155 10.2377 19.833 9.84474 19.4679C9.50438 19.1275 9.32183 18.7098 9.32183 18.2395C9.32183 17.4814 9.66219 16.909 10.3151 16.516C10.9432 16.123 11.856 15.9405 13.0565 15.9405V15.8879C13.0565 15.3402 12.6635 15.0772 11.856 15.0772C11.2031 15.0772 10.6276 15.235 10.1077 15.5475L9.76739 14.3996C10.3955 14.0066 11.2031 13.8241 12.1685 13.8241C13.1091 13.8241 13.8146 14.084 14.2849 14.5821C14.6779 15.0246 14.8852 15.628 14.8852 16.4108V19.8856ZM21.8316 19.8856H20.2134V18.9449H20.1886C19.7709 19.6504 19.0933 20.0155 18.1774 20.0155C17.5245 20.0155 17.0016 19.833 16.6117 19.44C16.1693 18.9975 15.9341 18.3168 15.9341 17.404V13.985H17.7628V17.0915C17.7628 18.0569 18.1279 18.5551 18.8334 18.5551C19.381 18.5551 19.7461 18.2952 19.9565 17.797C19.9813 17.7196 20.0091 17.5897 20.0091 17.4319V13.985H21.8378V19.8856H21.8316Z" fill="#CCCCCC"/>
</svg>
